<svg width="25" height="24" viewBox="0 0 25 24" fill="none" xmlns="http://www.w3.org/2000/svg">
<g clip-path="url(#clip0_4102_953)">
<path d="M13.1 4.19922L13.0946 4.19928C13.0823 4.19942 13.0701 4.19713 13.0587 4.19255C13.0473 4.18796 13.0369 4.18118 13.0281 4.17258C13.0193 4.16399 13.0123 4.15374 13.0075 4.14244L12.5483 4.33846L13.0075 4.14244C13.0027 4.13113 13.0001 4.11899 13 4.10669L12.5 4.11205H13C13 2.12617 14.6477 0.500054 16.6984 0.500054V0.5001L16.7052 0.500008C16.7173 0.499844 16.7293 0.502078 16.7406 0.506581C16.7518 0.511085 16.7621 0.517769 16.7708 0.526248C16.7794 0.534728 16.7863 0.544837 16.7911 0.555996C16.7957 0.566767 16.7981 0.578313 16.7984 0.590017C16.7969 2.57477 15.1513 4.19925 13.1 4.19925V4.19922ZM16.6984 5.4318e-05C16.7764 -0.00100249 16.8539 0.0133709 16.9263 0.0423482L16.6984 5.4318e-05Z" fill="black" stroke="#1E293B"/>
<path d="M13.0999 4.19922L13.0945 4.19928C13.0822 4.19942 13.07 4.19713 13.0586 4.19255C13.0472 4.18797 13.0368 4.18118 13.028 4.17258C13.0192 4.16399 13.0122 4.15374 13.0074 4.14244L12.5475 4.33873L13.0074 4.14243C13.0026 4.13113 13 4.11899 12.9999 4.1067L12.4999 4.11205H12.9999C12.9999 2.12617 14.6476 0.500054 16.6983 0.500054V0.5001L16.7051 0.500008C16.7172 0.499844 16.7292 0.502078 16.7405 0.506581C16.7517 0.511085 16.762 0.517769 16.7707 0.526248C16.7793 0.534728 16.7862 0.544838 16.791 0.555999C16.7955 0.566721 16.798 0.578217 16.7983 0.58987C16.7969 2.57469 15.1512 4.19925 13.0999 4.19925V4.19922ZM21.564 17.4719L21.5648 17.4725C21.6018 17.4995 21.6072 17.5422 21.5921 17.5713L21.5906 17.5743C20.5401 19.6324 19.6118 21.1409 18.7721 22.1286C17.9185 23.1328 17.2404 23.5001 16.6999 23.5001C16.0942 23.5001 15.4827 23.3093 14.8632 22.9108L14.8628 22.9105C14.2926 22.5444 13.6323 22.3431 12.9548 22.3287C12.2774 22.3143 11.6091 22.4875 11.0239 22.829L11.0229 22.8296C10.2436 23.2867 9.5387 23.5001 8.8999 23.5001C8.74036 23.5001 8.52501 23.4384 8.25198 23.2722C7.98177 23.1078 7.68366 22.8583 7.36849 22.5291C6.73817 21.8705 6.08266 20.9382 5.48724 19.8741C4.28777 17.7304 3.3999 15.1758 3.3999 13.4273C3.3999 11.5113 3.91354 9.86036 4.77891 8.70164C5.63722 7.55238 6.84467 6.87765 8.2999 6.87765C9.78673 6.87765 11.0429 7.09209 12.0805 7.5116L12.0817 7.51207C12.6792 7.7519 13.3566 7.73638 13.9431 7.4605L13.9436 7.46028C14.7535 7.0783 15.8617 6.87765 17.2983 6.87765C18.9125 6.87765 20.3496 7.65601 21.583 9.26575L21.5835 9.26634C21.5899 9.27474 21.5946 9.28436 21.5973 9.29461C21.6 9.30486 21.6006 9.31555 21.599 9.32604C21.5975 9.33652 21.5939 9.34659 21.5884 9.35565L22.016 9.61485L21.5884 9.35566C21.5829 9.36471 21.5756 9.37258 21.567 9.37879L21.567 9.37878L21.5637 9.38126C20.0198 10.5167 19.1999 11.853 19.1999 13.4273C19.1999 14.9998 20.0197 16.3378 21.564 17.4719Z" fill="black" stroke="#1E293B"/>
<path d="M21.8599 17.0686C22.0919 17.2382 22.1671 17.5486 22.0359 17.8014C19.9239 21.939 18.2391 23.9998 16.6999 23.9998C15.9831 23.9998 15.2791 23.7726 14.5927 23.331C14.1 23.0147 13.5295 22.8408 12.9442 22.8284C12.3589 22.8159 11.7815 22.9655 11.2759 23.2606C10.4439 23.7486 9.6519 23.9998 8.8999 23.9998C6.6359 23.9998 2.8999 17.1726 2.8999 13.427C2.8999 9.42704 5.0423 6.37744 8.2999 6.37744C9.8327 6.37744 11.1559 6.59824 12.2679 7.04784C12.7383 7.23664 13.2711 7.22384 13.7303 7.00784C14.6327 6.58224 15.8231 6.37744 17.2983 6.37744C19.1015 6.37744 20.6743 7.25744 21.9799 8.96144C22.0271 9.02289 22.0615 9.09319 22.0811 9.16818C22.1007 9.24317 22.105 9.32133 22.0938 9.39801C22.0826 9.4747 22.0561 9.54836 22.016 9.61464C21.9758 9.68091 21.9227 9.73845 21.8599 9.78384C20.4023 10.8558 19.6999 12.0574 19.6999 13.427C19.6999 14.795 20.4023 15.9982 21.8599 17.0686Z" fill="black"/>
</g>
<defs>
<clipPath id="clip0_4102_953">
<rect width="24" height="24" fill="white" transform="translate(0.5)"/>
</clipPath>
</defs>
</svg>
