<svg width="25" height="24" viewBox="0 0 25 24" fill="none" xmlns="http://www.w3.org/2000/svg">
<g clip-path="url(#clip0_4102_1002)">
<path d="M24.833 12C24.833 5.37262 19.4604 0 12.833 0C6.20563 0 0.833008 5.37262 0.833008 12C0.833008 17.9895 5.22126 22.954 10.958 23.8542V15.4688H7.91113V12H10.958V9.35625C10.958 6.34875 12.7496 4.6875 15.4906 4.6875C16.8035 4.6875 18.1768 4.92188 18.1768 4.92188V7.875H16.6636C15.1729 7.875 14.708 8.80003 14.708 9.74906V12H18.0361L17.5041 15.4688H14.708V23.8542C20.4448 22.954 24.833 17.9896 24.833 12Z" fill="#1877F2"/>
<path d="M17.5041 15.4688L18.0361 12H14.708V9.74906C14.708 8.79994 15.1729 7.875 16.6636 7.875H18.1768V4.92188C18.1768 4.92188 16.8035 4.6875 15.4905 4.6875C12.7496 4.6875 10.958 6.34875 10.958 9.35625V12H7.91113V15.4688H10.958V23.8542C11.5783 23.9514 12.2052 24.0001 12.833 24C13.4608 24.0001 14.0877 23.9514 14.708 23.8542V15.4688H17.5041Z" fill="white"/>
</g>
<defs>
<clipPath id="clip0_4102_1002">
<rect width="24" height="24" fill="white" transform="translate(0.833008)"/>
</clipPath>
</defs>
</svg>
