<svg width="25" height="24" viewBox="0 0 25 24" fill="none" xmlns="http://www.w3.org/2000/svg">
<g clip-path="url(#clip0_4102_981)">
<path d="M9.02706 0.789433C6.62909 1.62131 4.56108 3.20024 3.12679 5.29431C1.6925 7.38838 0.967541 9.8872 1.05839 12.4237C1.14923 14.9603 2.0511 17.4008 3.63151 19.3869C5.21193 21.373 7.38759 22.8 9.83893 23.4582C11.8263 23.971 13.9085 23.9935 15.9064 23.5238C17.7164 23.1173 19.3898 22.2476 20.7627 21.0001C22.1916 19.662 23.2288 17.9597 23.7627 16.0763C24.343 14.0282 24.4463 11.8743 24.0646 9.78006H12.9046V14.4094H19.3677C19.2385 15.1478 18.9617 15.8525 18.5538 16.4814C18.146 17.1102 17.6154 17.6504 16.9939 18.0694C16.2047 18.5915 15.315 18.9428 14.3821 19.1007C13.4463 19.2747 12.4865 19.2747 11.5508 19.1007C10.6024 18.9046 9.70524 18.5132 8.91643 17.9513C7.64921 17.0543 6.6977 15.7799 6.19768 14.3101C5.68921 12.8127 5.68921 11.1893 6.19768 9.69193C6.55361 8.64234 7.14199 7.68669 7.91893 6.89631C8.80804 5.97521 9.93368 5.3168 11.1723 4.99333C12.411 4.66985 13.7149 4.6938 14.9408 5.06256C15.8985 5.35654 16.7743 5.87019 17.4983 6.56256C18.2271 5.83756 18.9546 5.11068 19.6808 4.38193C20.0558 3.99006 20.4646 3.61693 20.8339 3.21568C19.7287 2.1872 18.4315 1.38691 17.0164 0.860683C14.4396 -0.0749616 11.6201 -0.100106 9.02706 0.789433Z" fill="white"/>
<path d="M9.02721 0.789367C11.6201 -0.100776 14.4396 -0.0762934 17.0166 0.858742C18.4319 1.38855 19.7286 2.19269 20.8322 3.22499C20.4572 3.62624 20.0616 4.00124 19.6791 4.39124C18.9516 5.11749 18.2247 5.84124 17.4985 6.56249C16.7744 5.87012 15.8986 5.35648 14.941 5.06249C13.7154 4.69244 12.4116 4.66711 11.1726 4.98926C9.93362 5.31141 8.80729 5.96861 7.91721 6.88874C7.14027 7.67912 6.55188 8.63477 6.19596 9.68437L2.30908 6.67499C3.70035 3.91604 6.10924 1.80566 9.02721 0.789367Z" fill="#E33629"/>
<path d="M1.2779 9.65605C1.48682 8.62067 1.83366 7.61798 2.30915 6.6748L6.19603 9.69168C5.68756 11.1891 5.68756 12.8124 6.19603 14.3098C4.90103 15.3098 3.6054 16.3148 2.30915 17.3248C1.11881 14.9554 0.755779 12.2557 1.2779 9.65605Z" fill="#F8BD00"/>
<path d="M12.9046 9.77832H24.0646C24.4464 11.8726 24.3431 14.0264 23.7628 16.0746C23.2288 17.958 22.1917 19.6602 20.7628 20.9983C19.5084 20.0196 18.2484 19.0483 16.994 18.0696C17.6159 17.6501 18.1467 17.1094 18.5546 16.4798C18.9625 15.8503 19.2391 15.1448 19.3678 14.4058H12.9046C12.9028 12.8646 12.9046 11.3214 12.9046 9.77832Z" fill="#587DBD"/>
<path d="M2.30713 17.3251C3.60338 16.3251 4.899 15.3201 6.194 14.3101C6.69502 15.7804 7.64789 17.0549 8.9165 17.9513C9.70777 18.5106 10.6069 18.8988 11.5565 19.0913C12.4922 19.2653 13.452 19.2653 14.3878 19.0913C15.3207 18.9334 16.2104 18.5821 16.9996 18.0601C18.254 19.0388 19.514 20.0101 20.7684 20.9888C19.3957 22.237 17.7223 23.1073 15.9121 23.5144C13.9141 23.9841 11.832 23.9616 9.84463 23.4488C8.27282 23.0291 6.80465 22.2893 5.53213 21.2757C4.18524 20.2063 3.08517 18.8588 2.30713 17.3251Z" fill="#319F43"/>
</g>
<defs>
<clipPath id="clip0_4102_981">
<rect width="24" height="24" fill="white" transform="translate(0.666504)"/>
</clipPath>
</defs>
</svg>
