<svg width="40" height="41" viewBox="0 0 40 41" fill="none" xmlns="http://www.w3.org/2000/svg">
  <path
    d="M23.05 28.3545H16.9469V34.3951C16.9469 35.9107 18.1906 37.1389 19.7219 37.1389H20.275C21.8063 37.1389 23.05 35.9107 23.05 34.3951V28.3545Z"
    fill="#E59600" />
  <path
    d="M28.5407 16.2695H11.4594C9.6188 16.2695 8.11255 17.8758 8.11255 19.8352C8.11255 21.7977 9.6188 23.4008 11.4594 23.4008H28.5375C30.3782 23.4008 31.8844 21.7945 31.8844 19.8352C31.8875 17.8758 30.3813 16.2695 28.5407 16.2695Z"
    fill="#E59600" />
  <path
    d="M20 3.96973C14.5625 3.96973 9.52502 9.78535 9.52502 18.1541C9.52502 26.4791 14.7156 30.5947 20 30.5947C25.2844 30.5947 30.475 26.4791 30.475 18.1541C30.475 9.78535 25.4375 3.96973 20 3.96973Z"
    fill="#FFCA28" />
  <path
    d="M14.8625 20.4824C15.7134 20.4824 16.4031 19.7689 16.4031 18.8887C16.4031 18.0085 15.7134 17.2949 14.8625 17.2949C14.0117 17.2949 13.3219 18.0085 13.3219 18.8887C13.3219 19.7689 14.0117 20.4824 14.8625 20.4824Z"
    fill="#404040" />
  <path
    d="M25.1375 20.4824C25.9884 20.4824 26.6782 19.7689 26.6782 18.8887C26.6782 18.0085 25.9884 17.2949 25.1375 17.2949C24.2867 17.2949 23.5969 18.0085 23.5969 18.8887C23.5969 19.7689 24.2867 20.4824 25.1375 20.4824Z"
    fill="#404040" />
  <path
    d="M21.2064 21.7789C21.172 21.7664 21.1407 21.757 21.1064 21.7539H18.897C18.8626 21.757 18.8282 21.7664 18.797 21.7789C18.597 21.8602 18.4876 22.0664 18.5814 22.2883C18.6751 22.5102 19.1157 23.1289 20.0032 23.1289C20.8907 23.1289 21.3313 22.507 21.4251 22.2883C21.5157 22.0664 21.4064 21.8602 21.2064 21.7789Z"
    fill="#E59600" />
  <path
    d="M22.6313 24.3041C21.6345 24.8947 18.372 24.8947 17.3782 24.3041C16.8063 23.9635 16.222 24.4854 16.4595 25.0041C16.6938 25.5135 18.4751 26.6979 20.0126 26.6979C21.5501 26.6979 23.3095 25.5135 23.5438 25.0041C23.7782 24.4854 23.2032 23.9635 22.6313 24.3041Z"
    fill="#795548" />
  <path
    d="M20.0062 2.08887C20.0031 2.08887 20.0031 2.08887 20 2.08887C19.9968 2.08887 19.9968 2.08887 19.9937 2.08887C5.7937 2.16387 8.70308 17.7576 8.70308 17.7576C8.70308 17.7576 9.34058 19.4295 9.6312 20.167C9.67183 20.2732 9.82808 20.2607 9.85308 20.1514C10.1562 18.7951 11.2468 13.9857 11.7968 12.5232C12.1218 11.6607 13.0156 11.1607 13.9187 11.3264C15.3125 11.5795 17.5281 11.892 19.975 11.892C19.9843 11.892 19.9937 11.892 20 11.892C20.0093 11.892 20.0187 11.892 20.025 11.892C22.4687 11.892 24.6875 11.5795 26.0781 11.3264C26.9843 11.1607 27.8781 11.6639 28.2 12.5232C28.7468 13.9795 29.8312 18.7607 30.1375 20.1357C30.1625 20.2482 30.3187 20.2576 30.3593 20.1514L31.2906 17.7545C31.2968 17.7576 34.2031 2.16387 20.0062 2.08887Z"
    fill="#543930" />
  <path
    d="M31.2969 17.7576C31.2969 17.7576 34.2063 2.16387 20.0063 2.08887C20.0031 2.08887 20.0031 2.08887 20 2.08887C19.9969 2.08887 19.9969 2.08887 19.9938 2.08887C19.7719 2.08887 19.5563 2.09512 19.3438 2.10449C18.9219 2.12324 18.5125 2.15449 18.1188 2.20137C18.1156 2.20137 18.1094 2.20137 18.1063 2.20137C18.0781 2.20449 18.0531 2.21074 18.025 2.21387C6.07188 3.71699 8.7 17.7576 8.7 17.7576L9.63125 20.1576C9.67188 20.2639 9.825 20.2545 9.85 20.142C10.1563 18.7701 11.2438 13.9826 11.7938 12.5264C12.1188 11.6639 13.0125 11.1639 13.9188 11.3295C15.3125 11.5795 17.5281 11.892 19.975 11.892C19.9844 11.892 19.9938 11.892 20 11.892C20.0094 11.892 20.0188 11.892 20.025 11.892C22.4688 11.892 24.6875 11.5795 26.0781 11.3264C26.9844 11.1607 27.8781 11.6639 28.2 12.5232C28.75 13.9857 29.8406 18.8045 30.1406 20.1545C30.1656 20.267 30.3188 20.2764 30.3594 20.1701C30.6531 19.4357 31.2969 17.7576 31.2969 17.7576Z"
    fill="url(#paint0_radial_2234_38030)" />
  <path
    d="M36.4062 17.4795C36.0188 17.4795 35.7031 17.7795 35.7031 18.1482V21.0232C35.7031 21.392 36.0188 21.692 36.4062 21.692C36.7938 21.692 37.1094 21.392 37.1094 21.0232V18.1482C37.1094 17.7795 36.7938 17.4795 36.4062 17.4795Z"
    fill="#E8AD00" />
  <path
    d="M35 17.4795C34.6125 17.4795 34.2969 17.7795 34.2969 18.1482V21.0232C34.2969 21.392 34.6125 21.692 35 21.692C35.3875 21.692 35.7031 21.392 35.7031 21.0232V18.1482C35.7031 17.7795 35.3875 17.4795 35 17.4795Z"
    fill="#E8AD00" />
  <path
    d="M35.7031 17.4795C35.3156 17.4795 35 17.7795 35 18.1482V21.6451C35 22.0139 35.3156 22.3139 35.7031 22.3139C36.0906 22.3139 36.4062 22.0139 36.4062 21.6451V18.1482C36.4062 17.7795 36.0906 17.4795 35.7031 17.4795Z"
    fill="#FFCA28" />
  <path
    d="M35.7031 17.9172C36.1794 17.9172 36.5656 17.5492 36.5656 17.0953C36.5656 16.6414 36.1794 16.2734 35.7031 16.2734C35.2267 16.2734 34.8406 16.6414 34.8406 17.0953C34.8406 17.5492 35.2267 17.9172 35.7031 17.9172Z"
    fill="#FFCA28" />
  <path
    d="M35.7031 17.0859C35.5312 17.0859 35.3906 16.9453 35.3906 16.7734V4.89844C35.3906 4.72656 35.5312 4.58594 35.7031 4.58594C35.875 4.58594 36.0156 4.72656 36.0156 4.89844V16.7734C36.0156 16.9484 35.875 17.0859 35.7031 17.0859Z"
    fill="#504F4F" />
  <path
    d="M36.25 4.57324C26.6156 2.15137 20 2.07324 20 2.07324C20 2.07324 13.3844 2.15137 3.75 4.57324V4.81387C3.75 5.22949 4.02188 5.59512 4.41875 5.71074C5.58125 6.05449 8.52187 6.81387 10.1 7.12949C10.075 7.15449 9.75625 7.71387 9.52812 8.23262C9.52812 8.23262 12.0719 10.0201 20.0031 10.8201C27.9344 10.0201 30.5531 8.45137 30.5531 8.45137C30.2781 7.88574 29.9938 7.36074 29.9938 7.36074C31.4 7.12949 34.4406 6.08887 35.6031 5.71699C35.9938 5.59199 36.2562 5.23262 36.2562 4.82324V4.57324H36.25Z"
    fill="url(#paint1_linear_2234_38030)" />
  <path
    d="M20 2.07324C20 2.07324 13.3844 2.15137 3.75 4.57324C3.75 4.57324 14.8156 7.59512 20 7.50449C25.1844 7.59512 36.25 4.57324 36.25 4.57324C26.6156 2.15137 20 2.07324 20 2.07324Z"
    fill="url(#paint2_linear_2234_38030)" />
  <path opacity="0.4"
    d="M36.25 4.57324C26.6156 2.15137 20 2.07324 20 2.07324C20 2.07324 13.3844 2.15137 3.75 4.57324V4.81387C3.75 5.22949 4.02188 5.59512 4.41875 5.71074C5.58125 6.05449 8.52187 6.86387 10.1 7.18262C10.1 7.18262 9.8 7.67012 9.52812 8.28574C9.52812 8.28574 12.0719 10.0201 20.0031 10.8232C27.9344 10.0232 30.5531 8.45449 30.5531 8.45449C30.2781 7.88887 29.9938 7.36387 29.9938 7.36387C31.4 7.13262 34.4406 6.09199 35.6031 5.72012C35.9938 5.59512 36.2562 5.23574 36.2562 4.82637V4.57324H36.25Z"
    fill="url(#paint3_linear_2234_38030)" />
  <path
    d="M12.5032 16.366C13.4376 15.0441 15.5594 14.9191 16.7751 15.9035C16.9688 16.0598 17.2251 16.2785 17.3001 16.5223C17.4251 16.9191 17.0438 17.2285 16.6719 17.1348C16.4344 17.0754 16.2126 16.9473 15.9782 16.8754C15.5501 16.741 15.2407 16.7035 14.8563 16.7035C14.2876 16.7004 13.9219 16.7723 13.3813 16.991C13.1594 17.0816 12.9782 17.2254 12.7251 17.1191C12.4344 16.9973 12.3282 16.6285 12.5032 16.366Z"
    fill="#6D4C41" />
  <path
    d="M26.897 17.1161C26.8064 17.0755 26.7189 17.0255 26.6282 16.988C26.072 16.7568 25.7564 16.6974 25.1532 16.7005C24.622 16.7036 24.3064 16.7755 23.8907 16.9161C23.6376 17.0036 23.3157 17.2224 23.0345 17.138C22.622 17.013 22.6345 16.563 22.8595 16.2755C23.1282 15.938 23.497 15.6818 23.8876 15.513C24.7939 15.1193 25.9001 15.1755 26.7532 15.6849C27.0314 15.8505 27.3345 16.0786 27.5032 16.3661C27.747 16.7755 27.3782 17.313 26.897 17.1161Z"
    fill="#6D4C41" />
  <path
    d="M35.7812 38.3256C35.7812 33.76 28.9843 31.5943 23.0562 31.1068L20.3687 34.5537C20.2812 34.6662 20.1437 34.735 20 34.735C19.8562 34.735 19.7187 34.6693 19.6312 34.5537L16.9375 31.1006C13.6406 31.3537 4.21558 32.585 4.21558 38.3256V39.2662H35.7781L35.7812 38.3256Z"
    fill="#212121" />
  <path
    d="M35.7812 38.3256C35.7812 33.76 28.9843 31.5943 23.0562 31.1068L20.3687 34.5537C20.2812 34.6662 20.1437 34.735 20 34.735C19.8562 34.735 19.7187 34.6693 19.6312 34.5537L16.9375 31.1006C13.6406 31.3537 4.21558 32.585 4.21558 38.3256V39.2662H35.7781L35.7812 38.3256Z"
    fill="url(#paint4_radial_2234_38030)" />
  <defs>
    <radialGradient id="paint0_radial_2234_38030" cx="0" cy="0" r="1" gradientUnits="userSpaceOnUse"
      gradientTransform="translate(20.0002 15.0997) scale(11.8354 13.3527)">
      <stop offset="0.7945" stop-color="#6D4C41" stop-opacity="0" />
      <stop offset="1" stop-color="#6D4C41" />
    </radialGradient>
    <linearGradient id="paint1_linear_2234_38030" x1="20" y1="0.719898" x2="20" y2="9.67006"
      gradientUnits="userSpaceOnUse">
      <stop offset="0.0032" stop-color="#424242" />
      <stop offset="0.4718" stop-color="#353535" />
      <stop offset="1" stop-color="#212121" />
    </linearGradient>
    <linearGradient id="paint2_linear_2234_38030" x1="20" y1="0.771992" x2="20" y2="10.4595"
      gradientUnits="userSpaceOnUse">
      <stop offset="0.0032" stop-color="#616161" />
      <stop offset="0.3237" stop-color="#505050" />
      <stop offset="0.955" stop-color="#242424" />
      <stop offset="1" stop-color="#212121" />
    </linearGradient>
    <linearGradient id="paint3_linear_2234_38030" x1="4.34141" y1="6.44918" x2="35.8502" y2="6.44918"
      gradientUnits="userSpaceOnUse">
      <stop offset="0.0012" stop-color="#BFBEBE" />
      <stop offset="0.3" stop-color="#212121" stop-opacity="0" />
      <stop offset="0.7" stop-color="#212121" stop-opacity="0" />
      <stop offset="1" stop-color="#BFBEBE" />
    </linearGradient>
    <radialGradient id="paint4_radial_2234_38030" cx="0" cy="0" r="1" gradientUnits="userSpaceOnUse"
      gradientTransform="translate(20 38.8299) scale(16.9272 8.88169)">
      <stop offset="0.5981" stop-color="#212121" />
      <stop offset="1" stop-color="#616161" />
    </radialGradient>
  </defs>
</svg>