<svg width="40" height="47" viewBox="0 0 40 47" fill="none" xmlns="http://www.w3.org/2000/svg">
  <path
    d="M39.2849 18.6719C39.2849 18.6719 36.9702 20.8323 33.0352 23.3784C31.9551 17.1287 28.9459 9.41309 23.0821 0C23.0821 0 21.1531 10.1075 14.7492 19.5978C11.9715 15.277 10.737 11.8821 10.737 11.8821C-9.32368 32.02 7.34213 46.2939 17.8354 46.2939C31.2606 46.2939 43.0656 39.8128 39.2849 18.6719Z"
    fill="#FF9D33" />
  <path
    d="M31.3379 36.5722C32.4952 34.026 33.3439 30.7083 33.4983 26.5418C33.4983 26.5418 31.878 27.9306 29.1003 29.7052C28.3288 25.5388 26.2455 20.4465 22.1562 14.1196C22.1562 14.1196 20.8446 20.8322 16.3695 27.2362C14.4406 24.3814 13.5919 22.0668 13.5919 22.0668C10.2741 27.3134 8.96248 31.4798 8.88533 34.7976C7.03357 34.1032 5.87622 33.5631 5.87622 33.5631C9.03964 42.9762 15.5979 45.0594 18.5299 45.0594C23.7765 45.0594 29.1003 43.5163 34.347 36.0321C34.347 35.9549 33.1896 36.2635 31.3379 36.5722Z"
    fill="#FFCE31" />
  <path
    d="M12.2031 32.3287C12.2031 32.3287 14.3635 35.2606 15.9838 34.5662C15.9838 34.5662 19.07 29.7054 23.5451 27.0049C23.5451 27.0049 22.6192 34.4119 23.6994 35.7236C25.0882 37.4982 28.8689 33.7947 28.8689 33.7947C28.8689 38.1926 24.0852 43.6707 19.7644 43.6707C15.598 43.6707 9.57979 38.887 12.2031 32.3287Z"
    fill="#FFDF85" />
  <path
    d="M33.7297 12.422C35.35 10.1073 36.4302 7.63829 36.4302 7.63829C39.1307 12.1134 37.5104 14.8138 36.353 15.6626C34.7327 16.8971 31.8779 15.1225 33.7297 12.422ZM4.25592 11.6504C2.63563 8.94995 2.48132 5.55507 2.48132 5.55507C-1.37651 11.3418 0.0894655 14.5824 1.40113 15.5083C3.09857 16.8199 6.03052 14.8138 4.25592 11.6504ZM13.2061 5.63222C13.4375 3.78047 12.666 1.92871 12.666 1.92871C16.2923 4.32056 16.2923 6.32663 15.8294 7.17535C15.135 8.17839 12.9746 7.71545 13.2061 5.63222Z"
    fill="#FF9D33" />
</svg>