<svg width="40" height="41" viewBox="0 0 40 41" fill="none" xmlns="http://www.w3.org/2000/svg">
  <path
    d="M13.75 0.516602C13.75 11.0791 8.0625 20.5166 0 20.5166C8.0625 20.5166 13.75 29.9541 13.75 40.5166C13.75 29.9541 19.4375 20.5166 27.5 20.5166C19.4375 20.5166 13.75 11.0791 13.75 0.516602Z"
    fill="#FFE54D" />
  <path
    d="M33.125 0.516602C33.125 5.7666 30.25 10.5166 26.25 10.5166C30.25 10.5166 33.125 15.2666 33.125 20.5166C33.125 15.2666 36 10.5166 40 10.5166C36 10.5166 33.125 5.7666 33.125 0.516602Z"
    fill="#6ADBC6" />
  <path
    d="M30 20.5166C30 25.7666 27.125 30.5166 23.125 30.5166C27.125 30.5166 30 35.2666 30 40.5166C30 35.2666 32.875 30.5166 36.875 30.5166C32.875 30.5166 30 25.7666 30 20.5166Z"
    fill="#FF73C0" />
</svg>