<svg width="40" height="54" viewBox="0 0 40 54" fill="none" xmlns="http://www.w3.org/2000/svg">
  <path
    d="M24.0332 28.2356C22.7026 27.8198 21.871 27.6535 21.871 26.905C21.871 26.2397 22.7026 26.0734 24.0332 25.5745C31.2681 23.5786 33.3471 18.3395 33.3471 9.44141H6.56958C6.56958 18.3395 8.64858 23.5786 15.8835 25.5745C17.2141 25.9903 18.0457 26.1566 18.0457 26.905C18.0457 27.6535 17.2141 27.7366 15.8835 28.2356C8.64858 30.2314 6.56958 35.4705 6.56958 44.3686H33.3471C33.3471 35.4705 31.2681 30.2314 24.0332 28.2356Z"
    fill="#E5E5E5" />
  <path
    d="M22.8691 28.2356C21.8711 27.8198 21.289 27.6535 21.289 26.905C21.289 26.2397 21.8711 26.0734 22.8691 25.5745C28.1082 23.4955 28.6071 18.2564 28.6071 9.44141H11.3098C11.3098 18.3395 11.8088 23.5786 17.0479 25.5745C18.0458 25.9903 18.6279 26.1566 18.6279 26.905C18.6279 27.6535 18.0458 27.7366 17.0479 28.2356C11.8088 30.3146 11.3098 35.5537 11.3098 44.3686H28.6903C28.6071 35.4705 28.1082 30.2314 22.8691 28.2356Z"
    fill="#F5F5F5" />
  <path
    d="M20.7068 44.369C20.7068 44.369 20.2079 29.4834 20.2079 26.9054C20.2079 26.2401 21.5384 25.2422 22.1205 24.9095C24.6985 23.4127 27.9417 20.5021 27.9417 17.5083H11.8918C11.8918 20.5852 15.2182 23.4958 17.7131 24.9095C18.2952 25.2422 19.6257 26.2401 19.6257 26.9054C19.6257 29.5665 19.1268 44.369 19.1268 44.369H20.7068Z"
    fill="#428BC1" />
  <path
    d="M39.9168 51.8533C39.9168 52.768 39.2516 53.5165 38.3368 53.5165H1.58004C0.74844 53.5165 0 52.768 0 51.8533V49.3585C0 48.4437 0.66528 47.6953 1.58004 47.6953H38.42C39.2516 47.6953 40 48.4437 40 49.3585L39.9168 51.8533ZM34.9272 8.77636C34.9272 9.109 34.5946 9.44164 34.1788 9.44164H5.73805C5.32225 9.44164 4.9896 9.109 4.9896 8.77636V6.78052C4.9896 6.44787 5.32225 6.11523 5.73805 6.11523H34.1788C34.5946 6.11523 34.9272 6.44787 34.9272 6.78052V8.77636Z"
    fill="#212528" />
  <path
    d="M30.7692 8.77636C30.7692 9.109 30.5197 9.44164 30.1871 9.44164H9.7297C9.39706 9.44164 9.14758 9.109 9.14758 8.77636V6.78052C9.14758 6.44787 9.39706 6.11523 9.7297 6.11523H30.1871C30.5197 6.11523 30.7692 6.44787 30.7692 6.78052V8.77636Z"
    fill="#51575B" />
  <path
    d="M34.9272 47.0299C34.9272 47.3626 34.5946 47.6952 34.1788 47.6952H5.73805C5.32225 47.6952 4.9896 47.3626 4.9896 47.0299V45.0341C4.9896 44.7014 5.32225 44.3688 5.73805 44.3688H34.1788C34.5946 44.3688 34.9272 44.7014 34.9272 45.0341V47.0299ZM39.9168 4.45195C39.9168 5.36671 39.2516 6.11515 38.3368 6.11515H1.58004C0.66528 6.11515 0 5.36671 0 4.45195V1.95715C0 1.04239 0.66528 0.293945 1.58004 0.293945H38.42C39.2516 0.293945 40 1.04239 40 1.95715L39.9168 4.45195Z"
    fill="#212528" />
  <path
    d="M34.9273 4.45195C34.9273 5.36671 34.3451 6.11515 33.6799 6.11515H6.23703C5.57174 6.11515 4.98962 5.36671 4.98962 4.45195V1.95715C4.98962 1.04239 5.57174 0.293945 6.23703 0.293945H33.763C34.3451 0.293945 34.9273 1.04239 34.9273 1.95715V4.45195ZM34.9273 51.8532C34.9273 52.768 34.3451 53.5164 33.6799 53.5164H6.23703C5.57174 53.5164 4.98962 52.768 4.98962 51.8532V49.3584C4.98962 48.4436 5.57174 47.6952 6.23703 47.6952H33.763C34.4283 47.6952 35.0104 48.4436 35.0104 49.3584C34.9273 49.3584 34.9273 51.8532 34.9273 51.8532Z"
    fill="#51575B" />
  <path d="M3.32642 6.11523H4.15802V47.6953H3.32642V6.11523Z" fill="#919191" />
  <path d="M2.49475 6.11523H3.32635V47.6953H2.49475V6.11523Z" fill="#CECECE" />
  <path d="M36.5905 6.11523H37.4221V47.6953H36.5905V6.11523Z" fill="#919191" />
  <path d="M35.7588 6.11523H36.5904V47.6953H35.7588V6.11523Z" fill="#CECECE" />
  <path
    d="M30.7692 47.0298C30.7692 47.3624 30.5197 47.6951 30.1871 47.6951H9.7297C9.39706 47.6951 9.14758 47.3624 9.14758 47.0298V45.0339C9.14758 44.7013 9.39706 44.3687 9.7297 44.3687H30.1871C30.5197 44.3687 30.7692 44.7013 30.7692 45.0339V47.0298Z"
    fill="#51575B" />
</svg>